<svg width="512" height="512" viewBox="0 0 48 48" fill="none" xmlns="http://www.w3.org/2000/svg">
    <path
      d="M24 8c1 6 3 8 9 9-6 1-8 3-9 9-1-6-3-8-9-9 6-1 8-3 9-9z"
      fill="hsl(180, 28%, 38%)"
    />
    <path
      d="M37 26c.5 3 1.5 4 4.5 4.5-3 .5-4 1.5-4.5 4.5-.5-3-1.5-4-4.5-4.5 3-.5 4-1.5 4.5-4.5z"
      fill="hsl(350, 30%, 75%)"
    />
    <path
      d="M11 30c.4 2.4 1.2 3.2 3.6 3.6-2.4.4-3.2 1.2-3.6 3.6-.4-2.4-1.2-3.2-3.6-3.6 2.4-.4 3.2-1.2 3.6-3.6z"
      fill="hsl(180, 24%, 70%)"
    />
  </svg>